<svg xmlns="http://www.w3.org/2000/svg" viewBox="0 0 640 480" role="img" aria-labelledby="t d"><title id="t">Beholder visual</title><desc id="d">Original stylized floating eye boss artwork for Pixel Network.</desc><defs><radialGradient id="bg" cx="50%" cy="45%" r="70%"><stop stop-color="#173a2b"/><stop offset=".55" stop-color="#0d1b18"/><stop offset="1" stop-color="#080b0c"/></radialGradient><radialGradient id="iris"><stop stop-color="#d8ff80"/><stop offset=".45" stop-color="#77e34e"/><stop offset="1" stop-color="#1b5f2d"/></radialGradient><filter id="g"><feGaussianBlur stdDeviation="8"/></filter></defs><rect width="640" height="480" fill="url(#bg)"/><g opacity=".16" stroke="#9cff73" stroke-width="2"><path d="M30 380L180 210 320 300 470 120 610 290"/><path d="M70 80L200 170 360 70 570 190"/></g><ellipse cx="320" cy="252" rx="178" ry="126" fill="#101a17" stroke="#467b56" stroke-width="6"/><g fill="#16241e" stroke="#4e8f60" stroke-width="5"><path d="M174 235l-76-64 32-27 80 55z"/><path d="M188 302l-96 24 6 40 108-16z"/><path d="M239 354l-35 82 39 14 41-85z"/><path d="M401 354l35 82-39 14-41-85z"/><path d="M452 302l96 24-6 40-108-16z"/><path d="M466 235l76-64-32-27-80 55z"/></g><ellipse cx="320" cy="248" rx="106" ry="76" fill="#e3e5cf" stroke="#7e967b" stroke-width="7"/><ellipse cx="320" cy="248" rx="58" ry="58" fill="url(#iris)"/><ellipse cx="320" cy="248" rx="23" ry="32" fill="#07100a"/><circle cx="301" cy="224" r="10" fill="#fff" opacity=".9"/><g fill="#81ee62"><circle cx="190" cy="188" r="10"/><circle cx="450" cy="185" r="10"/><circle cx="174" cy="320" r="8"/><circle cx="468" cy="321" r="8"/></g><ellipse cx="320" cy="250" rx="126" ry="96" fill="none" stroke="#75e258" stroke-width="5" opacity=".24" filter="url(#g)"/></svg>