<svg xmlns="http://www.w3.org/2000/svg" viewBox="0 0 720 560" role="img" aria-labelledby="t d"><title id="t">Astral concept visual</title><desc id="d">Original celestial void warrior concept for Pixel Network.</desc><defs><radialGradient id="bg" cx="50%" cy="38%" r="82%"><stop stop-color="#173f58"/><stop offset=".52" stop-color="#102330"/><stop offset="1" stop-color="#080a0e"/></radialGradient><linearGradient id="armor" x1="0" y1="0" x2="0" y2="1"><stop stop-color="#64c1d7"/><stop offset=".55" stop-color="#2d6778"/><stop offset="1" stop-color="#17262d"/></linearGradient><filter id="g"><feGaussianBlur stdDeviation="15"/></filter></defs><rect width="720" height="560" fill="url(#bg)"/><ellipse cx="360" cy="250" rx="188" ry="210" fill="#5ae8ff" opacity=".09" filter="url(#g)"/><path d="M284 183l-48-96 31-18 61 69 32-93 32 93 61-69 31 18-48 96z" fill="#15262c" stroke="#5ba9ba" stroke-width="7"/><path d="M286 195c6-76 37-121 74-121s68 45 74 121l-16 91c-11 60-32 95-58 95s-47-35-58-95z" fill="url(#armor)" stroke="#77c7d8" stroke-width="6"/><path d="M305 210h110l-8 47-23 30h-48l-23-30z" fill="#152228" stroke="#72adba" stroke-width="5"/><path d="M320 229l28 8-12 20-25-7zM400 229l-28 8 12 20 25-7z" fill="#07090b"/><path d="M270 326c-63 31-98 83-118 164h416c-20-82-55-134-118-164l-42 59-48 38-49-38z" fill="#16272e" stroke="#4c8796" stroke-width="7"/><path d="M195 365l-96-49-18 36 101 63zM525 365l96-49 18 36-101 63z" fill="#213d46" stroke="#5fa0ae" stroke-width="6"/><circle cx="333" cy="242" r="8" fill="#a9f4ff"/><circle cx="387" cy="242" r="8" fill="#a9f4ff"/><g fill="#b9f7ff" opacity=".52"><circle cx="212" cy="135" r="5"/><circle cx="507" cy="116" r="6"/><circle cx="540" cy="286" r="4"/><circle cx="160" cy="312" r="4"/></g><path d="M360 92l13-38 13 38-13 25z" fill="#9befff" opacity=".85"/></svg>